<svg width="19" height="19" viewBox="0 0 19 19" fill="none" xmlns="http://www.w3.org/2000/svg">
<path fill-rule="evenodd" clip-rule="evenodd" d="M0.733183 3.33767C1.20263 2.86823 1.83934 2.60449 2.50324 2.60449H8.19777C8.6817 2.60449 9.074 2.9968 9.074 3.48073C9.074 3.96466 8.6817 4.35696 8.19777 4.35696H2.50324C2.30413 4.35696 2.11316 4.43606 1.97237 4.57686C1.83157 4.71766 1.75247 4.90862 1.75247 5.10773V16.4968C1.75247 16.6959 1.83157 16.8869 1.97237 17.0277C2.11316 17.1685 2.30413 17.2476 2.50324 17.2476H13.8923C14.0914 17.2476 14.2824 17.1685 14.4232 17.0277C14.564 16.8869 14.6431 16.6959 14.6431 16.4968V10.8023C14.6431 10.3183 15.0354 9.92603 15.5193 9.92603C16.0032 9.92603 16.3955 10.3183 16.3955 10.8023V16.4968C16.3955 17.1607 16.1318 17.7974 15.6624 18.2668C15.1929 18.7363 14.5562 19 13.8923 19H2.50324C1.83934 19 1.20263 18.7363 0.733183 18.2668C0.263734 17.7974 0 17.1607 0 16.4968V5.10773C0 4.44383 0.263734 3.80712 0.733183 3.33767Z"/>
<path fill-rule="evenodd" clip-rule="evenodd" d="M15.5192 2.63138C15.2939 2.63138 15.0778 2.72087 14.9185 2.88018L7.36183 10.4369L6.96138 12.0386L8.56315 11.6382L16.1198 4.08151C16.2791 3.9222 16.3686 3.70614 16.3686 3.48084C16.3686 3.25555 16.2791 3.03949 16.1198 2.88018C15.9605 2.72087 15.7445 2.63138 15.5192 2.63138ZM13.6793 1.641C14.1673 1.15304 14.8291 0.878906 15.5192 0.878906C16.2092 0.878906 16.8711 1.15304 17.359 1.641C17.847 2.12895 18.1211 2.79077 18.1211 3.48084C18.1211 4.17092 17.847 4.83273 17.359 5.32069L9.63072 13.049C9.51842 13.1613 9.37772 13.2409 9.22365 13.2795L5.96963 14.093C5.67103 14.1676 5.35516 14.0801 5.13752 13.8625C4.91988 13.6448 4.83239 13.329 4.90704 13.0304L5.72054 9.77636C5.75906 9.62229 5.83873 9.48158 5.95103 9.36928L13.6793 1.641Z"/>
</svg>
