<svg width="18" height="18" viewBox="0 0 18 18" fill="none" xmlns="http://www.w3.org/2000/svg">
<path d="M7.33268 2.33317C4.57126 2.33317 2.33268 4.57175 2.33268 7.33317C2.33268 10.0946 4.57126 12.3332 7.33268 12.3332C10.0941 12.3332 12.3327 10.0946 12.3327 7.33317C12.3327 4.57175 10.0941 2.33317 7.33268 2.33317ZM0.666016 7.33317C0.666016 3.65127 3.65078 0.666504 7.33268 0.666504C11.0146 0.666504 13.9993 3.65127 13.9993 7.33317C13.9993 11.0151 11.0146 13.9998 7.33268 13.9998C3.65078 13.9998 0.666016 11.0151 0.666016 7.33317Z" />
<path d="M10.9101 10.9106C11.2355 10.5851 11.7632 10.5851 12.0886 10.9106L17.0886 15.9106C17.414 16.236 17.414 16.7637 17.0886 17.0891C16.7632 17.4145 16.2355 17.4145 15.9101 17.0891L10.9101 12.0891C10.5847 11.7637 10.5847 11.236 10.9101 10.9106Z" />
</svg>
